<svg width="221" height="13" fill="none" xmlns="http://www.w3.org/2000/svg"><g clip-path="url(#clip0_1_1334)"><path d="M10.008 1.912H5.864v10.78h-1.72V1.913H0V.318h10.008v1.594zm12.721 9.311c2.686 0 4.671-2.018 4.671-4.72 0-2.718-1.985-4.713-4.671-4.713-2.663 0-4.65 1.995-4.65 4.714 0 2.701 1.986 4.72 4.65 4.72zm0-11.067c3.953 0 6.441 2.9 6.441 6.347 0 3.341-2.42 6.354-6.473 6.354-3.918 0-6.386-2.995-6.386-6.354 0-3.428 2.54-6.347 6.418-6.347zm25.677 12.538h-1.714V3.056h-.035l-3.69 4.789h-.28l-3.685-4.79h-.034v9.64h-1.722V.317h1.619l3.963 5.08L46.81.319h1.596v12.376zm20.89 0H67.58V3.056h-.037l-3.688 4.789h-.28l-3.69-4.79h-.029v9.64h-1.721V.317h1.613l3.967 5.08 3.992-5.08h1.59v12.376zM85.282.318h2.076L82.92 6.155v6.54H81.2V6.14L76.758.318h2.07l3.21 4.26 3.244-4.26zm48.613 12.376h-1.716V7.307h-6.713v5.387h-1.714V.318h1.714v5.389h6.713V.318h1.716v12.376zm7.121 0h1.727V.32h-1.727v12.374zm10.501-1.6h5.401v1.6h-7.122V.318h1.721v10.776zm16.736-9.182h-4.672v3.434h4.672v1.59h-4.672v5.757h-1.716V.318h6.388v1.594zm6.02 10.782h1.719V.32h-1.719v12.374zm18.095-.858c-1.596.727-2.895 1.02-4.559 1.02-3.669 0-6.373-2.652-6.373-6.283 0-3.643 2.775-6.417 6.416-6.417 1.412 0 2.394.233 4.273 1.053V3c-1.407-.794-2.861-1.211-4.301-1.211-2.598 0-4.617 2.047-4.617 4.731 0 2.76 1.999 4.702 4.844 4.702.932 0 1.773-.221 2.597-.491V8.195h-2.301V6.597h4.02v5.24h.001zm13.346-9.924h-5.076V5.65h4.899v1.594h-4.899v3.849h5.233v1.599h-6.956V.318h6.799v1.594zm7.754 3.811h1.103c1.843 0 2.374-.98 2.357-2.014-.02-1.157-.69-1.867-2.357-1.867h-1.103v3.88zm1.296-5.405c2.425 0 3.935 1.326 3.935 3.47 0 1.433-.717 2.501-2.007 3.025 1.093.749 1.762 1.887 2.672 3.427.516.854.809 1.27 1.636 2.454h-2.056l-1.579-2.545c-1.582-2.535-2.299-2.828-3.173-2.828h-.724v5.373h-1.719V.32h3.015z" fill="#243057"/><path d="M95.272 13h19.032V0H95.272v13z" fill="#FEFEFE"/><path fill-rule="evenodd" clip-rule="evenodd" d="M104.795 9.6h9.207V3.394h-9.207V9.6z" fill="#D21F34"/><path fill-rule="evenodd" clip-rule="evenodd" d="M95.59 9.6h9.205V3.407H95.59V9.6z" fill="#FEFEFE"/><path fill-rule="evenodd" clip-rule="evenodd" d="M95.591 3.405h18.411V.321h-18.41v3.084z" fill="#243057"/><path fill-rule="evenodd" clip-rule="evenodd" d="M95.591 12.674h18.411V9.582h-18.41v3.092z" fill="#212A4F"/></g><defs><clipPath id="clip0_1_1334"><path fill="#fff" d="M0 0h221v13H0z"/></clipPath></defs></svg>